# xmcd
#
# Track frame offsets: 
#        150
#        20125
#        37024
#        53525
#        67907
#        86992
#        104368
#        122324
#        139553
#        159546
#        175042
#        191758
#        203539
#        221817
#        238402
#        254749
#        274006
#
# Disc length: 3859 seconds
#
# Revision: 1
# Processed by: cddbd v1.5.2PL0 Copyright (c) Steve Scherf et al.
# Submitted via: ExactAudioCopyFreeDBPlugin 1.0
#
DISCID=f80f1111
DTITLE=R. Kelly - Black Panties (Deluxe Edition)
DYEAR=2013
DGENRE=R&B
TTITLE0=Legs Shakin' (feat. Ludacris)
TTITLE1=Cookie
TTITLE2=Throw This Money On You
TTITLE3=Prelude
TTITLE4=Marry The Pussy
TTITLE5=You Deserve Better
TTITLE6=Genius
TTITLE7=All The Way (feat. Kelly Rowland)
TTITLE8=My Story (feat. 2 Chainz)
TTITLE9=Right Back
TTITLE10=Spend That (feat. Jeezy)
TTITLE11=Crazy
TTITLE12=Shut Up
TTITLE13=Tear It Up (feat. Future)
TTITLE14=Show Me The Pussy (feat. Migos and Juicy J)
TTITLE15=Physical
TTITLE16=Every Position
EXTD=
EXTT0=
EXTT1=
EXTT2=
EXTT3=
EXTT4=
EXTT5=
EXTT6=
EXTT7=
EXTT8=
EXTT9=
EXTT10=
EXTT11=
EXTT12=
EXTT13=
EXTT14=
EXTT15=
EXTT16=
PLAYORDER=
